<mxfile host="app.diagrams.net" modified="2023-08-12T08:55:51.675Z" agent="Mozilla/5.0 (X11; Linux x86_64) AppleWebKit/537.36 (KHTML, like Gecko) Chrome/114.0.0.0 Safari/537.36" etag="21g3jhfFpo_Ev5D2OA1N" version="21.6.8" type="github">
  <diagram name="Page-1" id="SjNUqgIngpu39d5az77C">
    <mxGraphModel dx="1364" dy="807" grid="1" gridSize="10" guides="1" tooltips="1" connect="1" arrows="1" fold="1" page="1" pageScale="1" pageWidth="850" pageHeight="1100" math="0" shadow="0">
      <root>
        <mxCell id="0" />
        <mxCell id="1" parent="0" />
        <mxCell id="5BoZ83V1UFSGhs1CFrVE-1" value="&lt;font style=&quot;font-size: 16px;&quot;&gt;Context Summarizer&lt;br&gt;(pre-trained -&amp;nbsp;distilbart-cnn-12-6)&lt;br&gt;&lt;/font&gt;" style="rounded=0;whiteSpace=wrap;html=1;" vertex="1" parent="1">
          <mxGeometry x="280" y="480" width="160" height="80" as="geometry" />
        </mxCell>
      </root>
    </mxGraphModel>
  </diagram>
</mxfile>
